<?xml version="1.0" encoding="utf-8"?>
<!-- Generator: Adobe Illustrator 18.1.1, SVG Export Plug-In . SVG Version: 6.00 Build 0)  -->
<svg version="1.1" id="Layer_1" xmlns="http://www.w3.org/2000/svg" xmlns:xlink="http://www.w3.org/1999/xlink" x="0px" y="0px"
	 viewBox="2528.6 545.6 7.2 7.2" enable-background="new 2528.6 545.6 7.2 7.2" xml:space="preserve">
<path d="M2532.2,545.6c-2,0-3.6,1.6-3.6,3.6s1.6,3.6,3.6,3.6s3.6-1.6,3.6-3.6S2534.2,545.6,2532.2,545.6z M2529.7,547.7
	c0.1-0.1,0.1-0.2,0.1-0.2h0.1c-0.1,0.2-0.2,0.4-0.2,0.4V547.7L2529.7,547.7z M2529.1,550.1L2529.1,550.1L2529.1,550.1
	C2529,550.1,2529,550,2529.1,550.1c0-0.3,0-0.4,0-0.5v-0.1c0-0.4,0-0.8,0.1-1.2h0.1C2529.1,549.1,2529.1,549.6,2529.1,550.1z
	 M2530.7,551.5c0.3,0.3-0.4-0.4-0.8-1.5c-0.1-0.3-0.2-1,0-1.2c0,0,0.8-1,0.8-0.9c-0.6,0.8-0.3,2.5-0.3,2.7L2530.7,551.5z
	 M2530.3,552.1l0.7,0.5c-0.2-0.2-1.1-0.8-1.3-1.1v-0.1c0.1,0-0.4-0.6-0.4-0.6h0.5C2530,551.1,2530.2,551.9,2530.3,552.1
	L2530.3,552.1z M2530.4,546.5l-0.7,1.2c0,0-0.4-0.2-0.4-0.4c0,0,1.2-1,1.3-1.1l0,0C2530.6,546.4,2530.5,546.5,2530.4,546.5z"/>
</svg>
