<?xml version="1.0" encoding="utf-8"?>
<!-- Generator: Adobe Illustrator 18.1.1, SVG Export Plug-In . SVG Version: 6.00 Build 0)  -->
<svg version="1.1" id="Layer_1" xmlns="http://www.w3.org/2000/svg" xmlns:xlink="http://www.w3.org/1999/xlink" x="0px" y="0px"
	 viewBox="2992.9 -342.8 215.4 525.3" enable-background="new 2992.9 -342.8 215.4 525.3" xml:space="preserve">
<g>
	<path fill="#01ABDF" d="M3085.1-42.6c30.3,6.1,46.4,1.6,62.9-7.7c9.3-5.2,22.2-9.3,29-20.2c6.5-10.1,11.7-5.2,17.3-21
		c2.4-6.5,11.3-45.2,12.9-54.1c4-25.4-3.6-45.2-19-67c0,0-18.2,31.9-22.2,31.5c0,0-5.2-41.9-22.2-63.7c6.9-4.8,9.7-2,11.7-12.5
		c1.2-6.1,1.2-24.2-2.4-32.3c-10.9-24.6-37.1-53.2-37.1-53.2c-4.8,21.8-13.7,37.5-23.8,51.6c-4,5.6-5.6,12.1-5.2,18.6
		c-8.5-18.6-12.5-36.7-12.5-36.7c-14.9,1.6-41.5,46-42.8,64.5c-0.4,8.1-0.4,14.1,0.8,19.4c-1.6,6.9-3.2,14.9-4.4,24.2
		c-0.4,3.6-12.9-21-12.9-21c-9.3,6.1-7.7,37.5-7.7,40.7C3006-55.1,3023-55.5,3085.1-42.6z M3183.9-171.7
		C3183.9-171.7,3183.9-172.1,3183.9-171.7c0.8,0.4,1.6,1.2,2.4,1.6c0.8,0.4,4.8,2,4.8,2s-4,0-4.8-0.4
		C3185.5-169.3,3184.3-170.9,3183.9-171.7z M3158.1-139.4c0.8,0,2.4,2,3.2,2.4c0.8,0.4,1.6,1.2,2,1.6c0.4,0.8,0.8,1.2,0.8,1.2
		s-2.8-1.2-3.2-1.6c-0.8-0.4-2-2-2-2L3158.1-139.4z M3144.8-191.9l-1.2-6.1c0.4,0.4,1.6,8.1,2,8.9c0,0.8,0,1.6-0.4,2.4
		c-0.4,0.8-0.8,1.2-0.8,1.2s-0.4-3.2-0.4-4C3144.4-189.8,3144.8-191.9,3144.8-191.9z M3138.7-213.2c0.4,0.8,0.8,2,1.6,2.8
		L3138.7-213.2z M3129.1-236.6c0.8,0,7.3,3.6,7.7,4c0.8,0.4,1.2,1.2,1.6,2c0.4,0.8,0.4,1.6,0.4,1.6s-2.4-1.6-3.2-2s-1.6-2.4-1.6-2.4
		L3129.1-236.6z M3076.2-282.2L3076.2-282.2c-1.2,0-2.8-0.8-3.6-0.8C3073.4-283,3075.4-282.6,3076.2-282.2L3076.2-282.2z
		 M3076.6-280.6C3076.2-280.2,3076.2-280.2,3076.6-280.6C3076.2-280.2,3076.2-280.2,3076.6-280.6c-0.8,0-3.2-1.2-3.2-1.2
		s0.4,0,1.2,0c0.8,0,1.6,0.4,2,0.4C3076.6-280.6,3076.6-280.6,3076.6-280.6z M3096-210.8c0,0,3.6-1.2,4.4-1.6c0.4,0,1.2-0.8,2-1.2
		l0,0c-0.4,0.8-1.2,1.6-1.6,2C3099.6-211.2,3096-210.8,3096-210.8z M3092.8-140.2c0.4-0.4,1.2-0.4,2-0.4s1.2,0,1.2,0
		s-2.4,1.2-2.8,1.6l0,0v-0.4C3092.8-139.8,3092.8-140.2,3092.8-140.2z M3084.3-163.2C3084.3-163.2,3084.3-163.6,3084.3-163.2v-0.4
		c0.8,0,2.8-0.8,3.6-0.8C3087.1-164.4,3085.5-163.6,3084.3-163.2z M3083.1-188.2c0.8,0,1.6-0.4,2-0.4c0.8,0.4,0.8,0.4,0.8,0.4
		s-1.6,0.4-2.8,0.8C3083.1-187.8,3083.1-187.8,3083.1-188.2z M3076.6-96.3l1.2-3.2l0,0C3077.4-98.3,3077-97.5,3076.6-96.3z
		 M3069.4-162.4c0,0,2.4,0.4,3.2,0.4c0.8,0,4-0.4,4-0.4s-4.8,1.2-5.6,0.8C3070.2-162,3069.4-162.4,3069.4-162.4z M3064.1-225.7
		l1.6,1.6C3065.3-224.5,3064.5-225.3,3064.1-225.7z"/>
	<path fill="#CFD2E6" d="M3088.3-91.4l-0.4,3.2C3088.3-89.4,3088.3-90.2,3088.3-91.4L3088.3-91.4z"/>
	<path fill="#01ABDF" d="M2995.1,29.2c0.8,2.8,3.2,9.7,4.8,11.3c0,0,8.9,10.9,10.5,14.1c5.2,10.9,10.5,22.2,15.7,33.9
		c14.5,31.9,29.4,65.7,41.9,93.6c0.4,0,0.8,0,1.2,0c20.6,0,38.7-10.1,49.2-25.4c-0.4-2.4-0.8-4.8-1.2-7.3
		c-2.4-12.1-23-46.4-34.3-77.8c-0.8-2.4-1.6-5.2-2.4-7.7c0,0-0.8-9.3-1.6-10.9c0-2.8-5.6-10.1-5.2-12.9l-5.6-7.3l4.4-8.5
		c5.6-31.9,43.6-50,52-53.2c0.4,0,23.4-16.9,25.8-19.4c0,0,15.7-8.5,18.2-11.7c3.6-5.2,9.7-5.2,14.5-13.3c4.4-7.3,8.1-5.2,9.3-8.5
		c0.4-2-0.4-6.9-4.4-5.6c-1.2,0.4-10.5,6.1-17.3,10.5c0,0-0.4,0-0.4,0.4c-3.2,2-6.1,3.6-6.9,4c0,0-3.6,4-10.5,8.9
		c-2.4,1.6-4.8,3.2-7.3,4.8l0,0l0,0c-7.7,4.4-15.7,8.9-20.2,10.9c0,0-8.1,5.2-8.5,3.6c0,0,0-0.4,0.4-0.4c2-2,8.1-8.1,8.5-8.1
		c1.2-1.6,35.9-31.9,37.5-34.3c2.4-2.8,7.3-6.1,10.9-9.3c0.4-0.4,2.8-2,3.2-2.4c0.4-0.4,2-2,2.4-2.4c5.2-6.9,8.1-9.7,9.3-11.7l0,0
		c0-0.4,0.4-0.8,0.4-0.8c2-6.5-1.2-14.5-5.6-11.7c-5.6,4-11.7,8.5-17.7,13.7c-0.8,0.8-2,0.8-2.8,1.6c-0.8,0.4-1.2,2-2,2.4
		c-3.6,2.8-7.3,6.1-11.3,8.9c-1.2,0.8-4,2-5.2,3.2c-1.2,0.8-2.4,2.4-3.6,3.2c-2,0.8-2.8,2.4-4,3.6c-13.3,10.1-25.4,14.5-29,16.9
		c-0.8,0.4-8.5,6.5-8.9,6.1c-1.2-0.8-2.8-1.6-2.4-3.2c0-0.4,0-0.4,0.4-0.8c2.8-7.3,15.3-22.2,23.4-33.5c1.6-2,4.4-4,5.6-6.5
		s1.2-4,2.8-6.5c1.2-1.6,2-2,2.8-3.6c2.4-5.2,8.5-14.9,14.5-23.4c0.4-0.8,1.6-2,2-2.4c3.2-4.8,4.4-8.1,4.8-10.5
		c0.4-1.6,0.4-2.8,0.4-4c0-0.8,0.8-17.7-8.5-11.3c0,0-9.7,11.7-10.1,12.1c0,0-1.2,1.6-2,2.8v0.4v0.4c0,0.8,0,1.2-0.4,1.6
		c0.8,0.4-15.7,19.4-21,25.8c-0.8,1.2-1.2,4-2,4.8c-1.2,1.2-1.2,0.4-2.4,2c-10.1,12.9-19,27-26.6,33.1c-1.6,1.2-2,3.6-3.6,4.4
		c-2.4,1.6-7.7,3.6-8.1,3.2l0,0c-0.4,0-0.8,0-1.6-0.4l0,0c-1.6-0.4-3.2-1.6-4.8-3.6c-1.2-2-1.6-2.4-2-3.6c0-0.4,0-0.8,0-1.2
		c0-0.8-0.4-2-1.2-3.2l0,0c-0.4-1.2-1.2-2.8-2-4.4c-0.4-0.4-0.4-1.2-0.8-2c-0.4-1.2-1.2-2.8-1.2-4c-1.6-5.6-1.6-14.1-3.6-24.6
		c-1.2-5.6-2.4-6.9-2.4-9.3c-0.4-4.4,0.4-9.3-4-25c-0.4-1.2,0-7.3-0.4-8.9c-0.4-2-0.8-4.4-2-6.5c-4-10.5-14.1-19.8-19.4-15.3
		c-1.6,1.2,0.4,15.3,3.2,33.5c0,0.4,0,0.8,0,0.8c0,0.8,0,1.2,0.4,2c0.4,0.4,1.6,11.3,2.8,16.5c0,0.4,0,0.4,0,0.8
		c0.4,1.2,0,2.4-0.4,4v-0.4v0.4c0,0.8,0,1.2,0,1.6s0,0.8,0,1.2c0.4,1.6,0.4,2.4,0.8,2.4l0,0c0.8,1.2,1.2,2.8,1.2,4.4
		c2,18.2,2.4,37.9,2.8,50l-0.8,2.8l0,0c-0.4,0.8-0.4,2.4-1.2,2.8c-0.4,0-1.2-0.8-1.6-1.2l-0.4-0.4c-0.8-2.4-5.2-15.3-6.1-17.7
		c-0.4-0.8-1.6-3.2-2-4c-0.4-1.2,0-4.8-0.4-6.1c-2.4-6.9-4.4-12.5-7.3-16.1c-3.2-4-7.3-5.6-12.9-3.2c-0.8,0.4,2,10.9,5.2,26.6
		c0,0.4,0,0.8,0,1.2v0.4c0,0.4,0,0.8,0,1.2c0.8,0-0.4,0.4,0,0.8l0,0l0,0c0,1.2,0,2,0,2.8c0,0.4,0,0.8,0.4,1.2c0,0.4,0.4,0.8,0.4,1.2
		v0.4c0,0,0,0.8,0.4,1.2c0,0.4,0.4,0.8,0.4,1.2c1.6,8.9-0.8,26.2,0.4,34.3c0,2-2,7.3-1.6,8.9c0.4,2.8-0.4,9.3-0.4,13.7
		c0,1.2,0,2,0,2.8c0,0.4,0,0.4,0,0.8c0,0-4,3.2-5.2,7.7C2997.6-2.3,2992.7,19.5,2995.1,29.2z"/>
	<path fill="#01ABDF" d="M3122.6-112.8c0.4-1.2,0.8-2,0.8-3.2l0,0L3122.6-112.8z"/>
	<path d="M2993.5,29.6c0.8,2.8,3.2,10.1,4.8,11.7c0,0,8.9,11.3,10.5,14.5c5.2,10.9,10.5,22.6,16.1,34.3l0,0
		c14.5,31.5,29,64.5,41.5,92.4c0.8,0,1.2,0,1.6,0c0.4,0,0.8,0,1.2,0c20.6,0,38.7-10.1,49.2-25.4c3.6-5.2,6.1-10.9,7.7-16.9
		c-11.3-17.7-31.1-44.4-40.7-67.4c-1.2-3.2-2.4-6.1-3.2-8.9c0,0-0.4-1.2-1.2-2.8c0-2.8,0-5.6,0.4-8.1l0,0l0,0
		c6.1-32.7,52.4-64.5,50-75.4c0-0.4,24.2-19.8,26.6-22.6c0,0,12.5-10.1,14.9-12.9c3.6-5.2,10.1-6.1,14.9-14.1
		c4.8-7.3,4-6.9,4.8-10.1c0.4-2-0.4-6.9-4.4-5.6c-2,0.4-17.7,10.5-20.2,11.7c0,0-4,2.8-5.2,4c-0.4,0.4-1.6,1.6-2.4,2
		c-1.2,0.8-4,3.6-5.6,4.8c-8.9,6.5-22.2,14.1-29.4,17.7c0,0-6.9,4.4-8.5,4c0,0-0.4,0-0.4-0.4c0,0,8.9-8.5,9.3-8.9
		c1.2-1.6,36.3-32.3,38.3-34.7c2.4-3.2,7.3-6.1,10.9-9.7c0.4-0.4,2.8-2,3.2-2c0.4-0.8,2-2,2.4-2.4c4-5.2,6.5-8.1,8.1-10.1l0,0
		c0.8-1.2,1.6-2,1.6-2.8c2-6.9-1.2-14.5-5.6-11.7c-6.1,4-11.7,8.9-17.7,13.7c-0.8,0.8-2,0.8-2.8,1.6c-0.8,0.4-1.2,1.6-2,2.4
		c-3.6,2.8-7.3,6.1-11.3,8.9c-1.2,1.2-4,2-5.6,3.2c-1.2,0.8-2.4,2.4-3.6,3.2c-2,0.8-2.8,2.4-4,3.6c-13.3,10.1-25.8,14.9-29.4,17.3
		c-0.8,0.4-8.5,6.5-9.3,6.1c-0.8-0.8-2-1.2-2.4-2c-0.4-0.4-0.4-1.2,0-2c2.8-7.3,15.7-22.2,23.8-33.9c1.6-2,4.4-4.4,6.1-6.5
		c1.2-2.4,1.2-4,2.8-6.5c1.2-1.6,2-2,2.8-3.6c2.8-5.2,8.5-14.9,14.9-23.8c0.4-0.8,1.2-2,1.6-2.4c2.4-3.2,3.6-6.1,4.4-8.1
		c1.2-2.8,1.2-4.8,1.2-6.5c0-0.8,0.8-18.2-8.5-11.7c0,0-10.1,12.1-10.5,12.5c-0.4,0.4-2,2.4-2.4,3.6c0,0.8-0.4,1.2-0.4,1.6h0.4
		c0.8,0.4,3.2,0,3.6,0c0.8,0.4,3.6,2.8,4,3.2c-0.4-0.4-3.6-2-4.4-2.4c-0.4,0-2.4-0.4-3.2-0.4h-0.4c-6.5,7.7-15.7,19-21,25.4
		c-0.8,1.2-1.2,4-2,4.8c-1.2,1.2-1.2,0.4-2.4,2c-10.5,13.3-19.4,27.4-27,33.5c-1.6,1.2-2.4,3.2-3.6,4.4c-1.2,1.6-4.8,3.2-7.7,4.4
		c-1.6,0.8-3.2,1.6-4,2c-1.6,0.8-0.4-0.4,1.6-2c0,0,0.4-0.4,0.8-0.4l0,0c0.4-0.4,1.2-0.4,1.2-0.8c0,0-4-0.8-6.5-4.4
		c-0.4-0.8-0.8-1.6-1.2-2c-0.4-0.8-0.8-1.6-0.8-2.8c0-0.4,0-1.2-0.4-1.6l0,0c-0.4-1.2-1.2-2.8-2-4.4c-0.4-0.4-0.4-1.2-0.8-2
		c-0.8-2-1.6-4-2-5.6c-1.6-6.1-1.6-14.1-3.6-25c-1.2-6.1-2.4-6.9-2.4-9.3c-0.4-4.4,0.4-9.3-4-25.4c-0.4-1.2,0-7.7-0.4-8.9
		c0-1.2-0.4-2.4-0.8-3.6c-3.2-11.7-14.9-23.4-20.6-18.6c-1.6,1.2,0.4,16.9,3.6,36.7c0.4,0,0.4,0,0.8-0.4c0.4,0,1.2-0.4,1.2-0.4
		c0.8,0.4,0.8,0.4,0.8,0.4s-1.2,0.4-2,0.8c-0.4,0-0.4,0-0.8,0.4c0.8,5.2,1.6,10.5,2.8,16.1c0,0.4,0,0.4,0,0.8c0.4,1.6,0.4,2.4-0.4,4
		c0,0.8,0.4,1.6,0.4,2.4c0,0,0.4-0.4,0.8-0.4c1.6-0.8,5.2-1.6,5.2-1.6s-3.2,1.2-5.2,2c-0.4,0-0.4,0-0.8,0.4v1.6c0,0,0.4,0,0.8,0
		c1.6-0.4,6.1-1.2,6.1-1.2s-4.4,1.6-5.6,2c-0.4,0-0.4,0-0.4,0l0,0c0.8,1.2,1.2,2.8,1.2,4.4c2,18.2,2.4,38.3,2.8,50.8l-0.8,2.8
		c0,0-0.8,2.4-2,3.2l-0.4,0.4c-0.4,0-4.4,7.3-4.8,8.1c0.4-1.2,4-9.7,4-10.1c-0.8-2.4-5.2-15.3-6.1-18.2c-0.4-0.8-1.6-3.2-2-4
		c-0.4-1.2,0-5.2-0.4-6.1c-2-5.6-4-10.9-6.1-14.5c-3.6-5.6-7.7-8.1-14.5-5.2c-0.8,0.4,2.4,11.3,5.2,27c0,0.8,0,2,0,3.2
		c0.4,0,0.8,0,1.6-0.4c0.8-0.4,2-0.4,2-0.4s-0.8,0.4-1.2,0.8c0,0-0.4,0-0.4,0.4c-0.4,0.4-0.8,0.4-1.2,0.4c0,0,0,0-0.4,0l0,0
		c0,1.2,0,2,0,2.8c0,1.2,0.4,2,1.2,2.8c0.4,0,0.4,0,0.8,0h0.4c0.8,0,0.8-0.4,1.2,0c0.4,0,1.2-0.4,1.6-0.4c-0.4,0.4-2.4,1.6-2.8,1.6
		c0,0,0,0-0.4,0c-0.4,0-0.8,0-0.8,0c0,0.4,0.4,0.8,0.4,1.2c1.6,8.9-0.8,26.6,0.4,35.1c0,2-2,7.3-1.6,8.9c0.4,3.6-1.2,14.9-0.8,17.3
		l1.6-2.8l6.9-12.1c1.6-2.4,3.6-8.1,4.4-9.7c-0.4,1.2,1.6-2,2.4-4c-3.6,7.3-7.7,17.7-7.7,17.7c-4.4,6.9-2,2-5.6,9.7
		c0,0.4-0.4,0.8-0.4,1.2c-2,3.2-5.6,4-6.9,8.1C2996-2.3,2991.1,19.5,2993.5,29.6z M3115.4-117.6c0,0-2.4-1.6-3.2-2s-2.8-1.2-2.8-1.2
		s0-0.8,0.4-0.8c0.8-0.4,2,0.8,2.8,1.2c0.8,0.4,1.6,0.8,2,1.6C3114.9-118.4,3115.4-117.6,3115.4-117.6z M3106.9-117.6
		c0.8,0,2.8,1.6,3.6,2s1.6,0.8,2,1.6c0.4,0.4,0.8,1.2,0.8,1.2s-2.4-1.6-3.2-2c-0.8-0.4-2.4-1.6-2.4-1.6L3106.9-117.6z M3079.5,71.5
		c-0.8-2.8-1.6-5.2-1.6-6.5c0-3.2,1.6-4.4,1.6-6.9c0.4,2-1.6,2.8-0.4,8.1c0.4,1.6,0.8,3.2,1.2,5.2c2.4,8.1,6.5,18.6,8.1,25.4
		C3089.5,99.4,3082.7,81.6,3079.5,71.5z"/>
	<path fill="#01ABDF" d="M3145.6-93c-0.4,0,2.4,1.6,2.4,1.6l2.4,1.6c0,0-2.4-2.8-2.8-3.2C3147.2-93,3146.4-92.6,3145.6-93z"/>
	<path fill="#01ABDF" d="M3147.6-93.8c0.8,0.4,1.2-0.4,2.4,0c1.6,0.8,3.2,3.2,3.2,3.2s-1.2-2.8-2.4-3.2c0,0-1.2-0.4-2-0.4
		C3148.8-94.2,3147.6-94.2,3147.6-93.8z"/>
	<path fill="#01ABDF" d="M3165.4-110.4c0.8,0.8,4,2.8,4,2.8s0,0-0.4-0.8c0-0.4-1.2-0.8-1.6-1.6
		C3167.4-109.6,3165.8-110.4,3165.4-110.4z"/>
	<path fill="#01ABDF" d="M3078.2-62C3078.2-62.4,3078.2-62.4,3078.2-62c-0.4-2.8-1.2-6.1-2-6.9c-1.2-1.2-6.9-2.8-6.9-2.8
		s4.8,4,6.1,5.2C3076.6-65.6,3077.4-63.6,3078.2-62z"/>
	<path fill="#01ABDF" d="M3093.6-47.9c-0.4-1.6-3.6-2.4-3.6-2.4s4.4,5.6,4.8,7.7C3095.2-41.8,3094-46.7,3093.6-47.9z"/>
	<path fill="#01ABDF" d="M3171.8-75.3l3.6,2.8c0,0-0.8-2-1.6-2.4c-0.4,0-0.8-0.4-1.6-0.8c-1.2-0.4-2.4-0.4-2.4-0.4L3171.8-75.3z"/>
	<path fill="#01ABDF" d="M3149.2-57.5c-0.4,0-0.8-0.4-1.6-0.4c-0.8-0.4-2.4,0-2.4,0s0.8-0.4,1.6-0.4s2,0,2.4,0.4
		c0.8,0.4,2,2.8,2,2.8S3150-57.1,3149.2-57.5z"/>
</g>
</svg>
