<?xml version="1.0" encoding="utf-8"?>
<!-- Generator: Adobe Illustrator 18.1.1, SVG Export Plug-In . SVG Version: 6.00 Build 0)  -->
<svg version="1.1" id="Layer_1" xmlns="http://www.w3.org/2000/svg" xmlns:xlink="http://www.w3.org/1999/xlink" x="0px" y="0px"
	 viewBox="0 0 576 576" enable-background="new 0 0 576 576" xml:space="preserve">
<g>
	<polyline fill="#D3EAF2" stroke="#FFFFFF" stroke-width="2" stroke-miterlimit="10" points="315.6,31.4 316.2,147.8 299.4,158.8 
		299.8,40.6 	"/>
	<polyline fill="#8D8E91" stroke="#FFFFFF" stroke-width="2" stroke-miterlimit="10" points="340.6,72 340.6,83.8 311.4,104.2 
		311.4,90.2 	"/>
	<polyline fill="#A2B2BC" stroke="#FFFFFF" stroke-width="2" stroke-miterlimit="10" points="245,145 245.8,29.2 265,39.4 
		264.6,157.8 264.6,157.8 	"/>
	<polyline fill="#D3EAF2" stroke="#FFFFFF" stroke-width="2" stroke-miterlimit="10" points="280.8,30.4 281.4,126.4 264.6,137.4 
		265,39.4 	"/>
	<polygon fill="#8D8E91" stroke="#FFFFFF" stroke-width="2" stroke-miterlimit="10" points="261.6,20 280.8,30.4 265,39.4 
		245.8,29.2 	"/>
	<polygon fill="#8D8E91" stroke="#FFFFFF" stroke-width="2" stroke-miterlimit="10" points="296.4,21.2 315.6,31.4 299.8,40.6 
		280.6,30.4 	"/>
	<rect x="380.2" y="208.2" fill="#8D8E91" stroke="#FFFFFF" stroke-width="2" stroke-miterlimit="10" width="70.2" height="97.4"/>
	<polyline fill="#D3EAF2" stroke="#FFFFFF" stroke-width="2" stroke-miterlimit="10" points="426.6,297.2 526.6,356 508.2,367.4 
		406,307.8 406,307.8 	"/>
	<path fill="#FFFFFF" stroke="#FFFFFF" stroke-width="2" stroke-miterlimit="10" d="M420,279.6"/>
	<polyline fill="#A2B2BC" stroke="#FFFFFF" stroke-width="2" stroke-miterlimit="10" points="508.2,385.6 407.2,328 406,307.8 
		508.2,367.4 	"/>
	<polygon fill="#8D8E91" stroke="#FFFFFF" stroke-width="2" stroke-miterlimit="10" points="526.6,374.2 508.2,385.6 508.2,367.4 
		526.6,356 	"/>
	<polyline fill="#D3EAF2" stroke="#FFFFFF" stroke-width="2" stroke-miterlimit="10" points="408.2,326.8 508.2,385.6 489.8,397 
		387.6,337.4 387.6,337.4 	"/>
	<polyline fill="#A2B2BC" stroke="#FFFFFF" stroke-width="2" stroke-miterlimit="10" points="489.8,415.2 388.8,357.6 387.6,337.4 
		489.8,397 	"/>
	<polygon fill="#8D8E91" stroke="#FFFFFF" stroke-width="2" stroke-miterlimit="10" points="508.2,403.8 489.8,415.2 489.8,397 
		508.2,385.6 	"/>
	<polygon fill="#D7A3A8" stroke="#FFFFFF" stroke-width="2" stroke-miterlimit="10" points="466.2,305.8 364.4,355.8 206.6,257.8 
		312.4,208.2 	"/>
	<polygon fill="#8E7275" stroke="#FFFFFF" stroke-width="2" stroke-miterlimit="10" points="364.4,355.8 364.4,490.4 280.6,435.4 
		283.8,304 	"/>
	<polygon fill="#EFCBCF" stroke="#FFFFFF" stroke-width="2" stroke-miterlimit="10" points="466.2,441 364.4,490.4 364.4,355.8 
		466.2,305.8 	"/>
	<polygon fill="#D7A3A8" stroke="#FFFFFF" stroke-width="2" stroke-miterlimit="10" points="346.8,329.6 244.8,379.6 87,281.8 
		193,232.2 	"/>
	<polygon fill="#A2B2BC" stroke="#FFFFFF" stroke-width="2" stroke-miterlimit="10" points="132.8,548 132.8,465 163.4,484.2 
		163.6,567.2 	"/>
	<polyline fill="#D3EAF2" stroke="#FFFFFF" stroke-width="2" stroke-miterlimit="10" points="133.6,126.8 35.2,64.8 73.2,43.6 
		110.8,66.2 135.2,81.2 	"/>
	<polygon fill="#8D8E91" stroke="#FFFFFF" stroke-width="2" stroke-miterlimit="10" points="228,292.8 229.6,123.6 264.6,145.8 
		265,229.4 409.6,151.6 408.8,195.2 	"/>
	<polygon fill="#A2B2BC" stroke="#FFFFFF" stroke-width="2" stroke-miterlimit="10" points="196.8,64.2 336.4,150.4 299.6,172 
		229.4,128 228,292.8 214,285 192,272.6 	"/>
	<polyline fill="#A2B2BC" stroke="#FFFFFF" stroke-width="2" stroke-miterlimit="10" points="520.4,315 436.6,260.8 434.6,221.4 
		520.4,279.2 	"/>
	<polygon fill="#8D8E91" stroke="#FFFFFF" stroke-width="2" stroke-miterlimit="10" points="555,292.6 520.4,315 520.4,279.2 
		555,256.8 	"/>
	<polygon fill="#A2B2BC" stroke="#FFFFFF" stroke-width="2" stroke-miterlimit="10" points="133.6,160.4 37.2,99.8 35.2,64.8 
		133.6,124.6 	"/>
	<polygon fill="#FFFFFF" stroke="#FFFFFF" stroke-width="2" stroke-miterlimit="10" points="166,83.6 135.2,64.2 166,50.2 
		196.8,64.8 	"/>
	<polygon fill="#8E7275" stroke="#FFFFFF" stroke-width="2" stroke-miterlimit="10" points="228,502.2 228,502.4 87,406.8 87,281.8 
		164.4,329.2 158.4,455.2 	"/>
	<path fill="#FFFFFF" stroke="#FFFFFF" stroke-width="2" stroke-miterlimit="10" d="M89.2,140.6"/>
	<polyline fill="#A2B2BC" stroke="#FFFFFF" stroke-width="2" stroke-miterlimit="10" points="493.2,359 313.6,246 311.4,206.6 
		493.2,323.4 	"/>
	<polygon fill="#A2B2BC" stroke="#FFFFFF" stroke-width="2" stroke-miterlimit="10" points="97,495 101.8,289 132.8,306.6 
		127.8,514.2 	"/>
	<polygon fill="#8D8E91" stroke="#FFFFFF" stroke-width="2" stroke-miterlimit="10" points="132.6,308.4 101.8,289 130.4,271.8 
		161,291.2 	"/>
	<polygon fill="#D3EAF2" stroke="#FFFFFF" stroke-width="2" stroke-miterlimit="10" points="417.2,230.6 526,301 493.2,323.4 
		311.4,206.6 311.4,206.6 192.4,273.2 192,315 164.4,329.2 161,459.2 192,442.8 192,547.4 163.6,567.2 163.6,496.6 127.8,514.2 
		132.6,308.4 161.2,291.2 162,256.4 166,83.6 196.8,64.8 193,232.2 336.4,151 196.8,64.8 235,43.6 264.8,62 280.4,71.6 299.4,83.2 
		328.4,64.8 340.6,72 311.4,90.8 409.8,151.4 348.2,185.8 383.6,208.8 432.4,181.6 555,257.2 520.4,279.6 434.6,221.4 	"/>
	<polygon fill="#EFCBCF" stroke="#FFFFFF" stroke-width="2" stroke-miterlimit="10" points="346.8,465 244.8,514.2 244.8,379.6 
		346.8,329.6 	"/>
	<polygon fill="#8D8E91" stroke="#FFFFFF" stroke-width="2" stroke-miterlimit="10" points="526,336.8 493.2,359 493.2,323.4 
		526,301 	"/>
	<polyline fill="#D3EAF2" stroke="#FFFFFF" stroke-width="2" stroke-miterlimit="10" points="134,173 77.4,137.4 99.2,125.2 
		120.8,138.2 134.8,146.8 	"/>
	<polygon fill="#A2B2BC" stroke="#FFFFFF" stroke-width="2" stroke-miterlimit="10" points="134,192.4 78.6,157.6 77.4,137.4 
		134,171.8 	"/>
	<polygon fill="#A2B2BC" stroke="#FFFFFF" stroke-width="2" stroke-miterlimit="10" points="130.4,271.8 135.2,64.2 166,83.6 
		161,291.2 	"/>
	<polygon fill="#8E7275" stroke="#FFFFFF" stroke-width="2" stroke-miterlimit="10" points="244.8,379.6 244.8,514.2 161,459.2 
		164.2,328 	"/>
	<polyline fill="#A2B2BC" stroke="#FFFFFF" stroke-width="2" stroke-miterlimit="10" points="280.4,71.6 280.6,30.4 299.8,40.6 
		299.4,83.2 280.4,71.6 	"/>
	<polygon fill="#8D8E91" stroke="#FFFFFF" stroke-width="2" stroke-miterlimit="10" points="166,83.6 135.2,64.2 166,46.8 
		196.8,64.2 	"/>
</g>
</svg>
